<svg width="46" height="21" viewBox="0 0 46 21" fill="none" xmlns="http://www.w3.org/2000/svg">
<path d="M1.48535 4.20312H5.72168C6.68262 4.20312 7.49414 4.34961 8.15625 4.64258C8.82422 4.93555 9.33105 5.36914 9.67676 5.94336C10.0283 6.51172 10.2041 7.21191 10.2041 8.04395C10.2041 8.62988 10.084 9.16602 9.84375 9.65234C9.60938 10.1328 9.26953 10.543 8.82422 10.8828C8.38477 11.2168 7.85742 11.4658 7.24219 11.6299L6.76758 11.8145H2.78613L2.76855 10.4346H5.77441C6.38379 10.4346 6.89062 10.3291 7.29492 10.1182C7.69922 9.90137 8.00391 9.61133 8.20898 9.24805C8.41406 8.88477 8.5166 8.4834 8.5166 8.04395C8.5166 7.55176 8.41992 7.12109 8.22656 6.75195C8.0332 6.38281 7.72852 6.09863 7.3125 5.89941C6.90234 5.69434 6.37207 5.5918 5.72168 5.5918H3.18164V17H1.48535V4.20312ZM8.96484 17L5.85352 11.1992L7.62012 11.1904L10.7754 16.8945V17H8.96484ZM27.547 15.6201V17H20.7707V15.6201H27.547ZM21.1134 4.20312V17H19.4171V4.20312H21.1134ZM26.6505 9.70508V11.085H20.7707V9.70508H26.6505ZM27.4591 4.20312V5.5918H20.7707V4.20312H27.4591ZM37.0765 4.20312L40.3988 10.6279L43.7298 4.20312H45.6546L41.2425 12.2188V17H39.5462V12.2188L35.1341 4.20312H37.0765Z" fill="#D9EEEA"/>
<line x1="3" y1="11.5" x2="41" y2="11.5" stroke="#D9EEEA"/>
</svg>
